<svg xmlns="http://www.w3.org/2000/svg" width="168" height="40" viewBox="0 0 168 40" fill="none">
<path d="M20.5142 30.1348C20.5142 28.851 21.5889 27.7699 22.8651 27.7699C24.1413 27.7699 25.2161 28.851 25.2161 30.1348C25.2161 31.4185 24.1413 32.4996 22.8651 32.4996C21.5889 32.4996 20.5142 31.4861 20.5142 30.1348Z" fill="#0F1C24"/>
<path d="M16.9542 29.3918L12.6553 32.4999L17.8274 36.2837L19.5066 31.2837L16.9542 29.3918ZM26.2908 31.2837L27.9029 36.2837L33.075 32.4999L28.8433 29.3918L26.2908 31.2837ZM18.6334 36.8918L22.8651 39.9999L27.164 36.8918L22.8651 33.7161L18.6334 36.8918Z" fill="#0F1C24"/>
<path d="M20.783 27.2297L5.13232 15.8108L8.82668 23.4459L13.9988 27.2297H20.783ZM31.7989 27.2297L36.971 23.4459L40.5981 15.8108L25.0147 27.2297H31.7989Z" fill="#0F1C24"/>
<path d="M22.395 22.2295L0.564697 6.28351L4.25905 13.9186L21.1188 26.2159L22.395 22.2295ZM23.3354 22.2295L24.6788 26.2159L41.5385 13.9186L45.1657 6.28351L23.3354 22.2295Z" fill="#0F1C24"/>
<path d="M3.72168 0L1.10205 5.40541L9.02812 11.1486L3.72168 0ZM42.0758 0L36.7022 11.1486L44.6283 5.40541L42.0758 0Z" fill="#0F1C24"/>
<path d="M53 18.3461H55.8676V23.0769C55.8676 23.5385 55.8676 24 56.0971 24.2308C56.4412 24.9231 57.2441 25.0385 57.8177 25.0385C58.6206 25.0385 59.0794 24.8077 59.1941 24.5769C59.6529 24.1154 59.6529 23.3077 59.6529 22.9615V18.3461H62.5206V22.6154C62.5206 23.5385 62.5206 24.5769 62.0618 25.2692C61.3735 26.7692 59.1941 26.8846 57.8177 26.8846C55.9824 26.8846 54.95 26.6538 54.3765 26.3077C53.1147 25.6154 53 24.3462 53 23.6538V18.3461ZM63.4382 24.4615H66.0765V26.6539H63.4382V24.4615ZM70.6647 20.4231C70.6647 20.5385 70.6647 20.6538 70.7794 20.7692C71.0088 21 71.8118 21.2308 72.2706 21.3461L73.9912 21.6923C74.3353 21.8077 74.6794 21.8077 75.0236 22.0385C76.1706 22.5 76.5147 23.3077 76.5147 24C76.5147 24.5769 76.2853 25.0385 76.0559 25.3846C75.3677 26.4231 73.9912 26.8846 71.8118 26.8846C71.0088 26.8846 69.403 26.7692 68.3706 25.9615C67.6824 25.3846 67.5677 24.5769 67.5677 24.2308L70.4353 24.1154C70.55 24.6923 71.1235 25.0385 72.2706 25.0385C72.6147 25.0385 72.9588 25.0385 73.303 24.8077C73.5324 24.6923 73.7618 24.4615 73.7618 24.2308C73.7618 23.8846 73.4177 23.6538 73.1883 23.6538C72.8441 23.5385 71.0088 23.1923 70.55 23.0769C70.2059 22.9615 69.9765 22.9615 69.6324 22.8462C69.2882 22.7308 68.0265 22.2692 68.0265 20.7692C68.0265 20.1923 68.2559 19.6154 68.7147 19.1538C69.6324 18.2308 71.2383 18.1154 72.1559 18.1154C73.1883 18.1154 74.1059 18.2308 74.6794 18.4615C76.1706 18.9231 76.4 20.0769 76.5147 20.5385L73.6471 20.6538C73.5324 20.4231 73.4177 19.8462 72.1559 19.8462C71.4677 19.8462 70.6647 19.8462 70.6647 20.4231ZM77.3177 24.4615H79.9559V26.6539H77.3177V24.4615ZM90.6236 23.4231H88.6736L89.5912 20.6538L90.6236 23.4231ZM84.4294 26.5385H87.6412L88.1 25.1538H91.1971L91.6559 26.5385H94.8677L91.3118 18.3461H87.9853L84.4294 26.5385ZM98.8824 18.3461V26.5385H95.9V18.3461H98.8824ZM104.044 20.1923H106.453C106.682 20.1923 107.027 20.1923 107.256 20.4231C107.371 20.5385 107.485 20.7692 107.485 21C107.485 21.6923 106.797 21.6923 106.338 21.6923H104.159V20.1923H104.044ZM101.062 26.5385H104.044V23.5385H105.65L107.371 26.5385H110.582L108.518 23.1923C108.862 23.0769 109.435 22.9615 109.894 22.3846C110.238 21.9231 110.468 21.4615 110.468 20.7692C110.468 19.9615 110.124 19.1538 109.55 18.6923C108.862 18.2308 107.944 18.2308 107.256 18.1154H101.291V26.5385H101.062ZM114.827 18.3461H122.856V20.1923H117.809V21.8077H122.512V23.6538H117.809V26.6539H114.827V18.3461ZM129.509 19.8462C131.459 19.8462 131.918 21.5769 131.918 22.3846C131.918 23.1923 131.574 24.2308 130.656 24.6923C130.312 24.9231 129.853 24.9231 129.509 24.9231C127.788 24.9231 127.1 23.6538 127.1 22.3846C126.985 21.3462 127.674 19.8462 129.509 19.8462ZM129.279 18C127.788 18 125.838 18.3462 124.691 19.9615C124.118 20.6538 123.888 21.5769 123.888 22.5C123.888 23.4231 124.118 24.2308 124.691 25.0385C125.265 25.8462 126.412 26.8846 129.279 26.8846C130.771 26.8846 132.032 26.6538 133.179 25.7308C133.524 25.3846 133.868 25.0385 134.097 24.5769C134.556 23.8846 134.671 23.0769 134.671 22.3846C134.671 21 133.982 19.2692 132.147 18.4615C131.459 18.1154 130.312 18 129.279 18ZM139.488 20.1923H141.897C142.127 20.1923 142.471 20.1923 142.7 20.4231C142.815 20.5385 142.929 20.7692 142.929 21C142.929 21.6923 142.241 21.6923 141.782 21.6923H139.603V20.1923H139.488ZM136.506 26.5385H139.488V23.5385H141.094L142.815 26.5385H145.912L143.847 23.1923C144.191 23.0769 144.765 22.9615 145.224 22.3846C145.568 21.9231 145.797 21.4615 145.797 20.7692C145.797 19.9615 145.453 19.1538 144.88 18.6923C144.191 18.2308 143.274 18.2308 142.585 18.1154H136.621V26.5385H136.506ZM150.271 22.5C150.271 23.7692 150.959 25.0385 152.68 25.0385C153.368 25.0385 153.941 24.8077 154.285 24.4615C154.63 24.1154 154.744 23.8846 154.859 23.6538L157.612 24C157.497 24.3462 157.382 24.5769 157.153 25.0385C156.235 26.5385 154.285 27 152.565 27C151.762 27 150.959 26.8846 150.271 26.6539C148.55 26.0769 147.174 24.8077 147.174 22.6154C147.174 21 147.977 18.1154 152.68 18.1154C156.694 18.1154 157.268 19.9615 157.497 20.7692L154.859 21.1154C154.744 20.8846 154.63 20.5385 154.171 20.3077C153.712 20.0769 153.138 19.9615 152.794 19.9615C151.418 19.8462 150.271 20.7692 150.271 22.5ZM167.591 18.3461V20.1923H161.856V21.5769H167.132V23.4231H161.856V24.6923H167.706V26.5385H158.988V18.3461H167.591Z" fill="#0F1C24"/>
</svg>